<svg width="110" height="19" viewBox="0 0 110 19" fill="none" xmlns="http://www.w3.org/2000/svg">
<path d="M8.60156 13.5117C8.60156 13.207 8.57422 12.9297 8.51953 12.6797C8.46484 12.4297 8.34766 12.1992 8.16797 11.9883C7.99609 11.7773 7.74219 11.5664 7.40625 11.3555C7.07812 11.1445 6.64844 10.9258 6.11719 10.6992C5.48438 10.4336 4.87109 10.1523 4.27734 9.85547C3.68359 9.55078 3.14844 9.19922 2.67188 8.80078C2.19531 8.40234 1.81641 7.93359 1.53516 7.39453C1.26172 6.84766 1.125 6.20703 1.125 5.47266C1.125 4.75391 1.25391 4.10156 1.51172 3.51562C1.77734 2.92969 2.15234 2.42969 2.63672 2.01562C3.12109 1.59375 3.6875 1.26953 4.33594 1.04297C4.99219 0.816406 5.72266 0.703125 6.52734 0.703125C7.62109 0.703125 8.56641 0.929687 9.36328 1.38281C10.168 1.83594 10.7891 2.45703 11.2266 3.24609C11.6719 4.03516 11.8945 4.94141 11.8945 5.96484H8.47266C8.47266 5.48047 8.40234 5.05469 8.26172 4.6875C8.12891 4.3125 7.91406 4.01953 7.61719 3.80859C7.32031 3.59766 6.9375 3.49219 6.46875 3.49219C6.03125 3.49219 5.66797 3.58203 5.37891 3.76172C5.09766 3.93359 4.88672 4.17188 4.74609 4.47656C4.61328 4.77344 4.54688 5.10938 4.54688 5.48438C4.54688 5.76562 4.61328 6.01953 4.74609 6.24609C4.88672 6.46484 5.07812 6.66406 5.32031 6.84375C5.5625 7.01562 5.84766 7.18359 6.17578 7.34766C6.51172 7.51172 6.87891 7.67188 7.27734 7.82812C8.05078 8.13281 8.73438 8.46875 9.32812 8.83594C9.92188 9.19531 10.418 9.60156 10.8164 10.0547C11.2148 10.5 11.5156 11.0039 11.7188 11.5664C11.9219 12.1289 12.0234 12.7695 12.0234 13.4883C12.0234 14.1992 11.8984 14.8477 11.6484 15.4336C11.4062 16.0117 11.0508 16.5117 10.582 16.9336C10.1133 17.3477 9.54688 17.668 8.88281 17.8945C8.22656 18.1211 7.49219 18.2344 6.67969 18.2344C5.89062 18.2344 5.14453 18.125 4.44141 17.9062C3.73828 17.6797 3.11719 17.3398 2.57812 16.8867C2.04688 16.4258 1.62891 15.8438 1.32422 15.1406C1.01953 14.4297 0.867188 13.5898 0.867188 12.6211H4.30078C4.30078 13.1367 4.35156 13.5781 4.45312 13.9453C4.55469 14.3047 4.71094 14.5938 4.92188 14.8125C5.13281 15.0234 5.39062 15.1836 5.69531 15.293C6.00781 15.3945 6.36328 15.4453 6.76172 15.4453C7.21484 15.4453 7.57422 15.3594 7.83984 15.1875C8.11328 15.0156 8.30859 14.7852 8.42578 14.4961C8.54297 14.207 8.60156 13.8789 8.60156 13.5117ZM22.0078 0.9375H25.4297V12.6562C25.4297 13.9688 25.1875 15.0391 24.7031 15.8672C24.2266 16.6875 23.5664 17.2891 22.7227 17.6719C21.8789 18.0469 20.9141 18.2344 19.8281 18.2344C18.7344 18.2344 17.7617 18.0469 16.9102 17.6719C16.0586 17.2891 15.3945 16.6875 14.918 15.8672C14.4492 15.0391 14.2148 13.9688 14.2148 12.6562V0.9375H17.6367V12.6562C17.6367 13.3984 17.7188 13.9688 17.8828 14.3672C18.0547 14.7656 18.3008 15.0391 18.6211 15.1875C18.9492 15.3281 19.3516 15.3984 19.8281 15.3984C20.3125 15.3984 20.7109 15.3281 21.0234 15.1875C21.3438 15.0391 21.5859 14.7656 21.75 14.3672C21.9219 13.9688 22.0078 13.3984 22.0078 12.6562V0.9375ZM33.8672 11.9883H30.375V9.14062H33.8672C34.3516 9.14062 34.7461 9.03125 35.0508 8.8125C35.3633 8.59375 35.5898 8.29297 35.7305 7.91016C35.8711 7.51953 35.9414 7.08203 35.9414 6.59766C35.9414 6.10547 35.8672 5.64844 35.7188 5.22656C35.5781 4.79687 35.3555 4.44922 35.0508 4.18359C34.7539 3.91797 34.3594 3.78516 33.8672 3.78516H31.4766V18H28.0547V0.9375H33.8672C35.0156 0.9375 36.0039 1.17969 36.832 1.66406C37.6602 2.14844 38.293 2.81641 38.7305 3.66797C39.1758 4.51172 39.3984 5.48047 39.3984 6.57422C39.3984 7.67578 39.1758 8.63281 38.7305 9.44531C38.293 10.25 37.6602 10.875 36.832 11.3203C36.0039 11.7656 35.0156 11.9883 33.8672 11.9883ZM51.4805 15.1641V18H44.0625V15.1641H51.4805ZM45.1289 0.9375V18H41.6953V0.9375H45.1289ZM50.4844 7.85156V10.6055H44.0625V7.85156H50.4844ZM51.457 0.9375V3.78516H44.0625V0.9375H51.457ZM53.4961 0.9375H58.9688C60.1094 0.9375 61.082 1.13281 61.8867 1.52344C62.6914 1.91406 63.3086 2.49219 63.7383 3.25781C64.168 4.02344 64.3828 4.96875 64.3828 6.09375C64.3828 7.01562 64.2578 7.80469 64.0078 8.46094C63.7578 9.10938 63.4023 9.65234 62.9414 10.0898C62.4805 10.5195 61.9297 10.8633 61.2891 11.1211L60.2461 11.7422H55.8047L55.793 8.89453H58.875C59.3438 8.89453 59.7305 8.79297 60.0352 8.58984C60.3477 8.37891 60.5781 8.08594 60.7266 7.71094C60.8828 7.32812 60.9609 6.88281 60.9609 6.375C60.9609 5.83594 60.8906 5.375 60.75 4.99219C60.6172 4.60156 60.4023 4.30469 60.1055 4.10156C59.8164 3.89062 59.4375 3.78516 58.9688 3.78516H56.9297V18H53.4961V0.9375ZM61.2422 18L58.1133 10.3945L61.7109 10.3828L64.9102 17.8359V18H61.2422ZM78.3633 9.03516V16.0664C78.1211 16.3242 77.7656 16.625 77.2969 16.9688C76.8359 17.3047 76.2305 17.6016 75.4805 17.8594C74.7383 18.1094 73.832 18.2344 72.7617 18.2344C71.8164 18.2344 70.957 18.0859 70.1836 17.7891C69.418 17.4922 68.7578 17.043 68.2031 16.4414C67.6562 15.832 67.2383 15.0742 66.9492 14.168C66.6602 13.2539 66.5156 12.1719 66.5156 10.9219V8.01562C66.5156 6.78125 66.6523 5.70703 66.9258 4.79297C67.207 3.87109 67.6133 3.10547 68.1445 2.49609C68.6758 1.88672 69.3086 1.43359 70.043 1.13672C70.7852 0.839844 71.6211 0.691406 72.5508 0.691406C73.832 0.691406 74.8828 0.90625 75.7031 1.33594C76.5312 1.76563 77.1562 2.40234 77.5781 3.24609C78.0078 4.08984 78.2656 5.125 78.3516 6.35156H75.0352C74.9805 5.63281 74.8594 5.07031 74.6719 4.66406C74.4922 4.25781 74.2383 3.96875 73.9102 3.79688C73.582 3.61719 73.1562 3.52734 72.6328 3.52734C72.1797 3.52734 71.7852 3.60938 71.4492 3.77344C71.1133 3.92969 70.832 4.1875 70.6055 4.54688C70.3789 4.90625 70.2109 5.36719 70.1016 5.92969C69.9922 6.49219 69.9375 7.17969 69.9375 7.99219V10.9219C69.9375 11.7266 70 12.4141 70.125 12.9844C70.25 13.5547 70.4336 14.0195 70.6758 14.3789C70.9258 14.7383 71.2383 15 71.6133 15.1641C71.9961 15.3203 72.4453 15.3984 72.9609 15.3984C73.375 15.3984 73.707 15.3555 73.957 15.2695C74.207 15.1836 74.4062 15.0938 74.5547 15C74.7109 14.8984 74.8398 14.8203 74.9414 14.7656V11.625H72.4922V9.03516H78.3633ZM83.3672 0.9375L85.9688 8.625L88.5469 0.9375H92.2852L87.6914 11.8008V18H84.2344V11.8008L79.6406 0.9375H83.3672ZM95.0859 0.9375H98.0977L101.578 12.6094L105.047 0.9375H107.707L102.855 18H100.289L95.0859 0.9375ZM93.8672 0.9375H96.7383L97.1836 12.1875V18H93.8672V0.9375ZM106.395 0.9375H109.277V18H105.973V12.1875L106.395 0.9375Z" fill="white"/>
</svg>
