<svg width="90" height="16" viewBox="0 0 90 16" fill="none" xmlns="http://www.w3.org/2000/svg">
<path d="M7.75391 11.4062C7.75391 11.0742 7.71484 10.7812 7.63672 10.5273C7.55859 10.2669 7.42188 10.0326 7.22656 9.82422C7.03125 9.61589 6.75781 9.41732 6.40625 9.22852C6.05469 9.03971 5.60872 8.84766 5.06836 8.65234C4.48242 8.44401 3.95182 8.21289 3.47656 7.95898C3.0013 7.69857 2.5944 7.40234 2.25586 7.07031C1.92383 6.73828 1.66667 6.35742 1.48438 5.92773C1.30208 5.49805 1.21094 5.00651 1.21094 4.45312C1.21094 3.89974 1.30534 3.38867 1.49414 2.91992C1.68945 2.45117 1.96289 2.04427 2.31445 1.69922C2.67253 1.34766 3.10221 1.07422 3.60352 0.878906C4.10482 0.683594 4.66471 0.585938 5.2832 0.585938C6.20768 0.585938 6.98568 0.791016 7.61719 1.20117C8.25521 1.60482 8.73698 2.13542 9.0625 2.79297C9.38802 3.44401 9.55078 4.14062 9.55078 4.88281H7.75391C7.75391 4.34896 7.66602 3.87695 7.49023 3.4668C7.32096 3.05013 7.05404 2.72461 6.68945 2.49023C6.33138 2.24935 5.86263 2.12891 5.2832 2.12891C4.76237 2.12891 4.33268 2.22982 3.99414 2.43164C3.66211 2.63346 3.41471 2.9069 3.25195 3.25195C3.0957 3.59701 3.01758 3.99089 3.01758 4.43359C3.01758 4.73307 3.06966 5.00651 3.17383 5.25391C3.27799 5.49479 3.4375 5.7194 3.65234 5.92773C3.8737 6.13607 4.14714 6.32812 4.47266 6.50391C4.80469 6.67969 5.19531 6.84896 5.64453 7.01172C6.34115 7.23958 6.93685 7.49349 7.43164 7.77344C7.92643 8.05339 8.33008 8.36914 8.64258 8.7207C8.95508 9.06576 9.18294 9.45964 9.32617 9.90234C9.47591 10.3385 9.55078 10.8333 9.55078 11.3867C9.55078 11.9661 9.45312 12.4902 9.25781 12.959C9.06901 13.4277 8.79232 13.8281 8.42773 14.1602C8.06315 14.4922 7.6237 14.7493 7.10938 14.9316C6.59505 15.1074 6.01562 15.1953 5.37109 15.1953C4.8112 15.1953 4.26107 15.1042 3.7207 14.9219C3.18685 14.7396 2.70182 14.4661 2.26562 14.1016C1.82943 13.737 1.48112 13.2878 1.2207 12.7539C0.960286 12.2135 0.830078 11.5885 0.830078 10.8789H2.62695C2.62695 11.3672 2.69857 11.7871 2.8418 12.1387C2.98503 12.4837 3.18359 12.7702 3.4375 12.998C3.69141 13.2259 3.98112 13.3952 4.30664 13.5059C4.63867 13.61 4.99349 13.6621 5.37109 13.6621C5.89193 13.6621 6.32812 13.571 6.67969 13.3887C7.03776 13.2064 7.30469 12.946 7.48047 12.6074C7.66276 12.2689 7.75391 11.8685 7.75391 11.4062ZM18.5938 0.78125H20.3906V10.791C20.3906 11.8587 20.1855 12.7148 19.7754 13.3594C19.3652 14.0039 18.8249 14.4727 18.1543 14.7656C17.4902 15.0521 16.7741 15.1953 16.0059 15.1953C15.1855 15.1953 14.4466 15.0521 13.7891 14.7656C13.1315 14.4727 12.6074 14.0039 12.2168 13.3594C11.8327 12.7148 11.6406 11.8587 11.6406 10.791V0.78125H13.4277V10.791C13.4277 11.5332 13.5319 12.1126 13.7402 12.5293C13.9551 12.946 14.2546 13.2389 14.6387 13.4082C15.0293 13.5775 15.485 13.6621 16.0059 13.6621C16.5332 13.6621 16.9889 13.5775 17.373 13.4082C17.7637 13.2389 18.0632 12.946 18.2715 12.5293C18.4863 12.1126 18.5938 11.5332 18.5938 10.791V0.78125ZM27.666 9.42383H24.5605V7.89062H27.666C28.252 7.89062 28.724 7.77344 29.082 7.53906C29.4466 7.30469 29.7103 6.97917 29.873 6.5625C30.0423 6.14583 30.127 5.67057 30.127 5.13672C30.127 4.64844 30.0423 4.18945 29.873 3.75977C29.7103 3.33008 29.4466 2.98503 29.082 2.72461C28.724 2.45768 28.252 2.32422 27.666 2.32422H24.9316V15H23.1348V0.78125H27.666C28.584 0.78125 29.3587 0.966797 29.9902 1.33789C30.6217 1.70898 31.1003 2.22331 31.4258 2.88086C31.7578 3.5319 31.9238 4.27734 31.9238 5.11719C31.9238 6.02865 31.7578 6.80664 31.4258 7.45117C31.1003 8.0957 30.6217 8.58724 29.9902 8.92578C29.3587 9.25781 28.584 9.42383 27.666 9.42383ZM41.875 13.4668V15H35.7031V13.4668H41.875ZM36.0254 0.78125V15H34.2285V0.78125H36.0254ZM41.0449 6.89453V8.42773H35.7031V6.89453H41.0449ZM41.7773 0.78125V2.32422H35.7031V0.78125H41.7773ZM44.1797 0.78125H48.1543C49.0788 0.78125 49.8535 0.94401 50.4785 1.26953C51.11 1.59505 51.5853 2.07682 51.9043 2.71484C52.2298 3.34635 52.3926 4.12435 52.3926 5.04883C52.3926 5.69987 52.2852 6.29557 52.0703 6.83594C51.8555 7.36979 51.543 7.82552 51.1328 8.20312C50.7227 8.57422 50.2246 8.85091 49.6387 9.0332L49.1504 9.23828H45.6055L45.5859 7.70508H48.1348C48.6816 7.70508 49.1374 7.58789 49.502 7.35352C49.8665 7.11263 50.14 6.79036 50.3223 6.38672C50.5046 5.98307 50.5957 5.53711 50.5957 5.04883C50.5957 4.50195 50.5143 4.02344 50.3516 3.61328C50.1888 3.20312 49.9284 2.88737 49.5703 2.66602C49.2188 2.43815 48.7467 2.32422 48.1543 2.32422H45.9766V15H44.1797V0.78125ZM51.0059 15L48.1738 8.55469L50.0391 8.54492L52.9297 14.8828V15H51.0059ZM63.7012 7.91992V13.2227C63.5449 13.431 63.3073 13.6914 62.9883 14.0039C62.6758 14.3164 62.2363 14.5931 61.6699 14.834C61.1035 15.0749 60.3613 15.1953 59.4434 15.1953C58.7077 15.1953 58.0339 15.0716 57.4219 14.8242C56.8164 14.5768 56.2923 14.2057 55.8496 13.7109C55.4134 13.2096 55.0749 12.5879 54.834 11.8457C54.5931 11.097 54.4727 10.2214 54.4727 9.21875V6.55273C54.4727 5.55664 54.5736 4.68424 54.7754 3.93555C54.9772 3.18685 55.2767 2.5651 55.6738 2.07031C56.0775 1.57552 56.5755 1.20443 57.168 0.957031C57.7669 0.709635 58.4635 0.585938 59.2578 0.585938C60.1758 0.585938 60.957 0.758464 61.6016 1.10352C62.2461 1.44857 62.7441 1.94661 63.0957 2.59766C63.4538 3.2487 63.6556 4.02995 63.7012 4.94141H61.9043C61.8587 4.35547 61.735 3.85417 61.5332 3.4375C61.3314 3.01432 61.0449 2.69206 60.6738 2.4707C60.3027 2.24284 59.8307 2.12891 59.2578 2.12891C58.7109 2.12891 58.2487 2.22005 57.8711 2.40234C57.4935 2.58464 57.1842 2.85807 56.9434 3.22266C56.709 3.58724 56.5365 4.04622 56.4258 4.59961C56.3216 5.15299 56.2695 5.79753 56.2695 6.5332V9.21875C56.2695 9.97396 56.3444 10.6315 56.4941 11.1914C56.6439 11.7513 56.8555 12.2135 57.1289 12.5781C57.4089 12.9427 57.7441 13.2161 58.1348 13.3984C58.5254 13.5742 58.9648 13.6621 59.4531 13.6621C60.0065 13.6621 60.4427 13.6035 60.7617 13.4863C61.0807 13.3691 61.3249 13.2357 61.4941 13.0859C61.6699 12.9362 61.8099 12.8158 61.9141 12.7246V9.44336H59.3066V7.91992H63.7012ZM67.4121 0.78125L70.3125 7.91992L73.2227 0.78125H75.2539L71.2109 9.6875V15H69.4141V9.6875L65.3711 0.78125H67.4121ZM77.6855 0.78125H79.4238L83.1445 12.373L86.8555 0.78125H88.5938L83.8184 15H82.4512L77.6855 0.78125ZM77.1191 0.78125H78.6426L78.9062 9.45312V15H77.1191V0.78125ZM87.627 0.78125H89.1504V15H87.3633V9.45312L87.627 0.78125Z" fill="white"/>
</svg>
