<svg width="99" height="17" viewBox="0 0 99 17" fill="none" xmlns="http://www.w3.org/2000/svg">
<path d="M8.51855 12.5469C8.51855 11.7663 8.30729 11.1683 7.88477 10.7529C7.46224 10.3376 6.69954 9.93294 5.59668 9.53906C4.49382 9.14518 3.64876 8.7334 3.06152 8.30371C2.48145 7.86686 2.0446 7.37272 1.75098 6.82129C1.46452 6.2627 1.32129 5.62533 1.32129 4.90918C1.32129 3.67025 1.73307 2.64974 2.55664 1.84766C3.38737 1.04557 4.47233 0.644531 5.81152 0.644531C6.72819 0.644531 7.5446 0.852214 8.26074 1.26758C8.97689 1.67578 9.52832 2.24512 9.91504 2.97559C10.3018 3.70605 10.4951 4.50814 10.4951 5.38184H8.51855C8.51855 4.41504 8.28581 3.66667 7.82031 3.13672C7.35482 2.60677 6.68522 2.3418 5.81152 2.3418C5.0166 2.3418 4.40072 2.5638 3.96387 3.00781C3.52702 3.45182 3.30859 4.07487 3.30859 4.87695C3.30859 5.53581 3.54492 6.08724 4.01758 6.53125C4.49023 6.97526 5.2207 7.37272 6.20898 7.72363C7.7487 8.2321 8.84798 8.85872 9.50684 9.60352C10.1729 10.3483 10.5059 11.3223 10.5059 12.5254C10.5059 13.793 10.0941 14.8099 9.27051 15.5762C8.44694 16.3353 7.32617 16.7148 5.9082 16.7148C4.9987 16.7148 4.15723 16.5179 3.38379 16.124C2.61751 15.723 2.01237 15.1644 1.56836 14.4482C1.13151 13.7249 0.913086 12.8978 0.913086 11.9668H2.88965C2.88965 12.9336 3.1582 13.6855 3.69531 14.2227C4.23958 14.7598 4.97721 15.0283 5.9082 15.0283C6.77474 15.0283 7.42643 14.8063 7.86328 14.3623C8.30013 13.9183 8.51855 13.3132 8.51855 12.5469ZM22.4189 0.859375V11.9775C22.4046 13.46 21.9749 14.6201 21.1299 15.458C20.2848 16.2959 19.1068 16.7148 17.5957 16.7148C16.0488 16.7148 14.8672 16.3066 14.0508 15.4902C13.2344 14.6667 12.819 13.4958 12.8047 11.9775V0.859375H14.7598V11.9023C14.7598 12.9551 14.9818 13.7428 15.4258 14.2656C15.877 14.7812 16.6003 15.0391 17.5957 15.0391C18.5983 15.0391 19.3216 14.7812 19.7656 14.2656C20.2168 13.7428 20.4424 12.9551 20.4424 11.9023V0.859375H22.4189ZM27.4141 10.377V16.5H25.4482V0.859375H30.4326C31.8864 0.859375 33.0286 1.29622 33.8594 2.16992C34.6901 3.03646 35.1055 4.19303 35.1055 5.63965C35.1055 7.14355 34.708 8.30371 33.9131 9.12012C33.1253 9.92936 32.0117 10.3483 30.5723 10.377H27.4141ZM27.4141 8.69043H30.4326C31.3063 8.69043 31.9759 8.42904 32.4414 7.90625C32.9069 7.38346 33.1396 6.63509 33.1396 5.66113C33.1396 4.72298 32.8997 3.97103 32.4199 3.40527C31.9401 2.83952 31.2812 2.55664 30.4434 2.55664H27.4141V8.69043ZM45.1494 9.27051H39.6172V14.8135H46.0625V16.5H37.6514V0.859375H45.9551V2.55664H39.6172V7.58398H45.1494V9.27051ZM53.3135 10.1729H50.5635V16.5H48.5869V0.859375H52.9697C54.5023 0.859375 55.6624 1.26042 56.4502 2.0625C57.238 2.85742 57.6318 4.02474 57.6318 5.56445C57.6318 6.53125 57.417 7.3763 56.9873 8.09961C56.5648 8.81576 55.9632 9.35645 55.1826 9.72168L58.2119 16.3711V16.5H56.0957L53.3135 10.1729ZM50.5635 8.48633H52.9482C53.7718 8.48633 54.4271 8.22135 54.9141 7.69141C55.4082 7.16146 55.6553 6.45247 55.6553 5.56445C55.6553 3.55924 54.7458 2.55664 52.9268 2.55664H50.5635V8.48633ZM70.0605 14.5557L69.7168 14.9854C68.7285 16.1383 67.2819 16.7148 65.377 16.7148C63.6868 16.7148 62.3584 16.1562 61.3916 15.0391C60.432 13.9147 59.9414 12.3285 59.9199 10.2803V7.20801C59.9199 5.0166 60.3568 3.37663 61.2305 2.28809C62.1113 1.19238 63.4255 0.644531 65.1729 0.644531C66.6624 0.644531 67.8262 1.0599 68.6641 1.89062C69.5091 2.72135 69.9746 3.90658 70.0605 5.44629H68.0947C68.016 4.47233 67.7438 3.71322 67.2783 3.16895C66.82 2.61751 66.1217 2.3418 65.1836 2.3418C64.0592 2.3418 63.2357 2.71061 62.7129 3.44824C62.1901 4.17871 61.918 5.34961 61.8965 6.96094V10.1514C61.8965 11.7269 62.1973 12.9372 62.7988 13.7822C63.4004 14.6201 64.2633 15.0391 65.3877 15.0391C66.4476 15.0391 67.2533 14.7812 67.8047 14.2656L68.0947 13.9971V10.3877H65.2373V8.71191H70.0605V14.5557ZM77.3438 8.71191L80.5449 0.859375H82.7686L78.3213 10.667V16.5H76.3555V10.667L71.9082 0.859375H74.1426L77.3438 8.71191ZM87.3447 0.859375L91.4268 13.6211L95.5088 0.859375H98.0439V16.5H96.0781V10.4092L96.2607 4.30762L92.168 16.5H90.6641L86.5928 4.35059L86.7754 10.4092V16.5H84.8096V0.859375H87.3447Z" fill="white"/>
</svg>
