<svg width="101" height="17" viewBox="0 0 101 17" fill="none" xmlns="http://www.w3.org/2000/svg">
<path d="M7.88477 11.8857C7.88477 11.6064 7.8597 11.3522 7.80957 11.123C7.75944 10.8939 7.65202 10.6826 7.4873 10.4893C7.32975 10.2959 7.09701 10.1025 6.78906 9.90918C6.48828 9.71582 6.0944 9.5153 5.60742 9.30762C5.02734 9.06413 4.46517 8.80632 3.9209 8.53418C3.37663 8.25488 2.88607 7.93262 2.44922 7.56738C2.01237 7.20215 1.66504 6.77246 1.40723 6.27832C1.15658 5.77702 1.03125 5.18978 1.03125 4.5166C1.03125 3.85775 1.14941 3.25977 1.38574 2.72266C1.62923 2.18555 1.97298 1.72721 2.41699 1.34766C2.861 0.960938 3.38021 0.663737 3.97461 0.456055C4.57617 0.248372 5.24577 0.144531 5.9834 0.144531C6.986 0.144531 7.85254 0.352214 8.58301 0.767578C9.32064 1.18294 9.88997 1.75228 10.291 2.47559C10.6992 3.19889 10.9033 4.02962 10.9033 4.96777H7.7666C7.7666 4.52376 7.70215 4.13346 7.57324 3.79688C7.4515 3.45312 7.25456 3.18457 6.98242 2.99121C6.71029 2.79785 6.35938 2.70117 5.92969 2.70117C5.52865 2.70117 5.19564 2.78353 4.93066 2.94824C4.67285 3.10579 4.47949 3.32422 4.35059 3.60352C4.22884 3.87565 4.16797 4.18359 4.16797 4.52734C4.16797 4.78516 4.22884 5.0179 4.35059 5.22559C4.47949 5.42611 4.65495 5.60872 4.87695 5.77344C5.09896 5.93099 5.36035 6.08496 5.66113 6.23535C5.96908 6.38574 6.30566 6.53255 6.6709 6.67578C7.37988 6.95508 8.00651 7.26302 8.55078 7.59961C9.09505 7.92904 9.5498 8.30143 9.91504 8.7168C10.2803 9.125 10.556 9.58691 10.7422 10.1025C10.9284 10.6182 11.0215 11.2054 11.0215 11.8643C11.0215 12.516 10.9069 13.1104 10.6777 13.6475C10.4557 14.1774 10.1299 14.6357 9.7002 15.0225C9.27051 15.402 8.7513 15.6956 8.14258 15.9033C7.54102 16.111 6.86784 16.2148 6.12305 16.2148C5.39974 16.2148 4.71582 16.1146 4.07129 15.9141C3.42676 15.7064 2.85742 15.3949 2.36328 14.9795C1.8763 14.557 1.49316 14.0234 1.21387 13.3789C0.93457 12.7272 0.794922 11.9574 0.794922 11.0693H3.94238C3.94238 11.542 3.98893 11.9466 4.08203 12.2832C4.17513 12.6126 4.31836 12.8776 4.51172 13.0781C4.70508 13.2715 4.94141 13.4183 5.2207 13.5186C5.50716 13.6117 5.83301 13.6582 6.19824 13.6582C6.61361 13.6582 6.94303 13.5794 7.18652 13.4219C7.43717 13.2643 7.61621 13.0531 7.72363 12.7881C7.83105 12.5231 7.88477 12.2223 7.88477 11.8857ZM20.1738 0.359375H23.3105V11.1016C23.3105 12.3047 23.0885 13.2858 22.6445 14.0449C22.2077 14.7969 21.6025 15.3483 20.8291 15.6992C20.0557 16.043 19.1712 16.2148 18.1758 16.2148C17.1732 16.2148 16.2816 16.043 15.501 15.6992C14.7204 15.3483 14.1117 14.7969 13.6748 14.0449C13.2451 13.2858 13.0303 12.3047 13.0303 11.1016V0.359375H16.167V11.1016C16.167 11.7819 16.2422 12.3047 16.3926 12.6699C16.5501 13.0352 16.7757 13.2858 17.0693 13.4219C17.3701 13.5508 17.7389 13.6152 18.1758 13.6152C18.6198 13.6152 18.985 13.5508 19.2715 13.4219C19.5651 13.2858 19.7871 13.0352 19.9375 12.6699C20.0951 12.3047 20.1738 11.7819 20.1738 11.1016V0.359375ZM31.0449 10.4893H27.8438V7.87891H31.0449C31.4889 7.87891 31.8506 7.77865 32.1299 7.57812C32.4163 7.3776 32.624 7.10189 32.7529 6.75098C32.8818 6.3929 32.9463 5.99186 32.9463 5.54785C32.9463 5.09668 32.8783 4.67773 32.7422 4.29102C32.6133 3.89714 32.4092 3.57845 32.1299 3.33496C31.8577 3.09147 31.4961 2.96973 31.0449 2.96973H28.8535V16H25.7168V0.359375H31.0449C32.0977 0.359375 33.0036 0.58138 33.7627 1.02539C34.5218 1.4694 35.1019 2.08171 35.5029 2.8623C35.9111 3.63574 36.1152 4.52376 36.1152 5.52637C36.1152 6.53613 35.9111 7.41341 35.5029 8.1582C35.1019 8.89583 34.5218 9.46875 33.7627 9.87695C33.0036 10.2852 32.0977 10.4893 31.0449 10.4893ZM47.1904 13.4004V16H40.3906V13.4004H47.1904ZM41.3682 0.359375V16H38.2207V0.359375H41.3682ZM46.2773 6.69727V9.22168H40.3906V6.69727H46.2773ZM47.1689 0.359375V2.96973H40.3906V0.359375H47.1689ZM49.0381 0.359375H54.0547C55.1003 0.359375 55.9919 0.538411 56.7295 0.896484C57.4671 1.25456 58.0329 1.78451 58.4268 2.48633C58.8206 3.18815 59.0176 4.05469 59.0176 5.08594C59.0176 5.93099 58.903 6.6543 58.6738 7.25586C58.4447 7.85026 58.1188 8.34798 57.6963 8.74902C57.2738 9.1429 56.7689 9.45801 56.1816 9.69434L55.2256 10.2637H51.1543L51.1436 7.65332H53.9688C54.3984 7.65332 54.7529 7.56022 55.0322 7.37402C55.3187 7.18066 55.5299 6.91211 55.666 6.56836C55.8092 6.21745 55.8809 5.80924 55.8809 5.34375C55.8809 4.84961 55.8164 4.42708 55.6875 4.07617C55.5658 3.7181 55.3688 3.44596 55.0967 3.25977C54.8317 3.06641 54.4844 2.96973 54.0547 2.96973H52.1855V16H49.0381V0.359375ZM56.1387 16L53.2705 9.02832L56.5684 9.01758L59.501 15.8496V16H56.1387ZM71.833 7.78223V14.2275C71.611 14.4639 71.2852 14.7396 70.8555 15.0547C70.4329 15.3626 69.8779 15.6348 69.1904 15.8711C68.5101 16.1003 67.6794 16.2148 66.6982 16.2148C65.8317 16.2148 65.0439 16.0788 64.335 15.8066C63.6331 15.5345 63.028 15.1227 62.5195 14.5713C62.0182 14.0127 61.6351 13.318 61.3701 12.4873C61.1051 11.6494 60.9727 10.6576 60.9727 9.51172V6.84766C60.9727 5.71615 61.098 4.73145 61.3486 3.89355C61.6064 3.0485 61.9788 2.34668 62.4658 1.78809C62.9528 1.22949 63.5329 0.814128 64.2061 0.541992C64.8864 0.269857 65.6527 0.133789 66.5049 0.133789C67.6794 0.133789 68.6426 0.330729 69.3945 0.724609C70.1536 1.11849 70.7266 1.70215 71.1133 2.47559C71.5072 3.24902 71.7435 4.19792 71.8223 5.32227H68.7822C68.7321 4.66341 68.6211 4.14779 68.4492 3.77539C68.2845 3.40299 68.0518 3.13802 67.751 2.98047C67.4502 2.81576 67.0599 2.7334 66.5801 2.7334C66.1647 2.7334 65.8031 2.80859 65.4951 2.95898C65.1872 3.10221 64.9294 3.33854 64.7217 3.66797C64.514 3.9974 64.36 4.41992 64.2598 4.93555C64.1595 5.45117 64.1094 6.08138 64.1094 6.82617V9.51172C64.1094 10.2493 64.1667 10.8796 64.2812 11.4023C64.3958 11.9251 64.5641 12.3512 64.7861 12.6807C65.0153 13.0101 65.3018 13.25 65.6455 13.4004C65.9964 13.5436 66.4082 13.6152 66.8809 13.6152C67.2604 13.6152 67.5648 13.5758 67.7939 13.4971C68.0231 13.4183 68.2057 13.3359 68.3418 13.25C68.485 13.1569 68.6032 13.0853 68.6963 13.0352V10.1562H66.4512V7.78223H71.833ZM76.4199 0.359375L78.8047 7.40625L81.168 0.359375H84.5947L80.3838 10.3174V16H77.2148V10.3174L73.0039 0.359375H76.4199ZM87.1621 0.359375H89.9229L93.1133 11.0586L96.293 0.359375H98.7314L94.2842 16H91.9316L87.1621 0.359375ZM86.0449 0.359375H88.6768L89.085 10.6719V16H86.0449V0.359375ZM97.5283 0.359375H100.171V16H97.1416V10.6719L97.5283 0.359375Z" fill="white"/>
</svg>
